<?xml version="1.0" encoding="UTF-8" standalone="no"?>
<!DOCTYPE svg PUBLIC "-//W3C//DTD SVG 1.1//EN" "http://www.w3.org/Graphics/SVG/1.1/DTD/svg11.dtd">
<!-- Created with Vectornator (http://vectornator.io/) -->
<svg height="100%" stroke-miterlimit="10" style="fill-rule:nonzero;clip-rule:evenodd;stroke-linecap:round;stroke-linejoin:round;" version="1.1" viewBox="70 75 400 390" width="100%" xml:space="preserve" xmlns="http://www.w3.org/2000/svg" xmlns:xlink="http://www.w3.org/1999/xlink">
<defs/>
<g id="logoKeyWrapper">
<path d="M142.993 94.2853C142.993 89.3746 146.974 85.3937 151.885 85.3937L450.259 88.0161C455.169 88.0161 459.15 91.997 459.15 96.9077L459.818 397.889C459.818 402.8 455.837 406.781 450.926 406.781L139.964 408.439C135.053 408.439 131.072 404.458 131.072 399.547L142.993 94.2853Z" fill="#ffca43" fill-rule="nonzero" opacity="1" stroke="none" />
<g opacity="1">
<path id="logoKeyOutline" d="M156.284 75.8704C152.06 75.8704 149.144 77.1463 144.151 80.2589C143.983 80.3639 143.2 80.9265 142.602 81.2915L107.1951 111.291C105.6337 112.594 103.3278 114.484 101.2576 117.229C97.6725 121.982 95.5785 127.168 95.5783 132.46C95.5783 136.151 95.5783 414.026 95.5783 417.717C95.5783 433.664 108.543 446.63 124.4912 446.63L409.49 446.63C413.665 446.63 422.684 444.205 426.012 441.725C442.188 429.665 454.083 415.685 461.161 408.627C466.348 403.44 469.422 396.211 469.422 388.75L469.422 103.493C469.422 88.1777 456.928 75.8706 441.541 75.8704C432.626 75.8704 165.199 75.8704 156.284 75.8704ZM164.545 87.4872L441.541 87.4872C450.625 87.4872 458.063 94.668 458.063 103.751L458.063 388.75C458.063 397.833 450.625 405.272 441.541 405.271L164.545 405.271C155.462 405.271 148.283 397.833 148.282 388.75L148.282 103.751C148.282 94.6675 155.461 87.4868 164.545 87.4872Z" fill="#278fa1" fill-rule="nonzero" opacity="1" stroke="none" />
</g>
</g>
</svg>
