<?xml version="1.0" encoding="UTF-8" standalone="no"?>
<!DOCTYPE svg PUBLIC "-//W3C//DTD SVG 1.1//EN" "http://www.w3.org/Graphics/SVG/1.1/DTD/svg11.dtd">
<!-- Created with Vectornator (http://vectornator.io/) -->
<svg background-color="transparent" height="100%" stroke-miterlimit="10" style="fill-rule:nonzero;clip-rule:evenodd;stroke-linecap:round;stroke-linejoin:round;" version="1.1" viewBox="100 111 881 879" width="100%" xml:space="preserve" xmlns="http://www.w3.org/2000/svg" xmlns:xlink="http://www.w3.org/1999/xlink">
<defs/>
<clipPath id="ArtboardFrame">
<rect height="1080" width="1080" x="0" y="0"/>
</clipPath>
<g clip-path="url(#ArtboardFrame)" id="Layer-1">
<path d="M0 0L1081.74 0L1081.74 1080L0 1080L0 0Z" fill-rule="nonzero" opacity="0" stroke="none" />
<g opacity="1">
<path d="M336.668 701.621L245.922 701.621C243.664 701.621 242.03 701.116 241.02 700.106C240.009 699.095 239.504 697.461 239.504 695.203L239.504 579.676C239.504 577.417 240.009 575.783 241.02 574.773C242.03 573.763 243.664 573.257 245.922 573.257L273.556 573.257C275.815 573.257 277.449 573.763 278.459 574.773C279.469 575.783 279.974 577.417 279.974 579.676L279.974 667.926L304.399 667.926L304.399 639.044C304.399 636.786 304.904 635.151 305.915 634.141C306.925 633.131 308.559 632.626 310.817 632.626L336.668 632.626C338.927 632.626 340.561 633.131 341.571 634.141C342.581 635.151 343.087 636.786 343.087 639.044L343.087 695.203C343.087 697.461 342.581 699.095 341.571 700.106C340.561 701.116 338.927 701.621 336.668 701.621Z" fill="#278fa1" fill-rule="nonzero" opacity="1" stroke="none"/>
<path d="M472.163 667.926C472.163 673.393 471.361 678.355 469.757 682.812C468.152 687.269 465.299 691.073 461.199 694.222C457.098 697.372 451.453 699.838 444.262 701.621C437.071 703.404 427.949 704.295 416.896 704.295C405.842 704.295 396.69 703.404 389.44 701.621C382.19 699.838 376.515 697.372 372.414 694.222C368.314 691.073 365.461 687.269 363.857 682.812C362.252 678.355 361.45 673.393 361.45 667.926L361.45 607.131C361.45 601.664 362.252 596.702 363.857 592.245C365.461 587.787 368.314 583.954 372.414 580.745C376.515 577.536 382.19 575.04 389.44 573.257C396.69 571.475 405.842 570.583 416.896 570.583C427.949 570.583 437.071 571.475 444.262 573.257C451.453 575.04 457.098 577.536 461.199 580.745C465.299 583.954 468.152 587.787 469.757 592.245C471.361 596.702 472.163 601.664 472.163 607.131L472.163 667.926ZM401.92 661.507C401.92 663.885 402.811 665.875 404.594 667.48C406.377 669.084 410.477 669.887 416.896 669.887C423.314 669.887 427.414 669.084 429.197 667.48C430.98 665.875 431.871 663.885 431.871 661.507L431.871 613.549C431.871 611.291 430.98 609.36 429.197 607.755C427.414 606.151 423.314 605.348 416.896 605.348C410.477 605.348 406.377 606.151 404.594 607.755C402.811 609.36 401.92 611.291 401.92 613.549L401.92 661.507Z" fill="#278fa1" fill-rule="nonzero" opacity="1" stroke="none"/>
<path d="M580.203 701.621L536.702 701.621C521.845 701.621 510.821 698.65 503.63 692.707C496.44 686.764 492.844 677.612 492.844 665.251L492.844 609.805C492.844 597.444 496.44 588.263 503.63 582.261C510.821 576.259 521.845 573.257 536.702 573.257L580.203 573.257C582.461 573.257 584.095 573.763 585.106 574.773C586.116 575.783 586.621 577.417 586.621 579.676L586.621 601.248C586.621 603.506 586.116 605.14 585.106 606.151C584.095 607.161 582.461 607.666 580.203 607.666L544.368 607.666C540.683 607.666 537.95 608.409 536.167 609.895C534.384 611.38 533.493 613.609 533.493 616.58L533.493 659.011C533.493 661.983 534.384 664.152 536.167 665.519C537.95 666.886 540.683 667.569 544.368 667.569L580.203 667.569C582.461 667.569 584.095 668.074 585.106 669.084C586.116 670.095 586.621 671.729 586.621 673.987L586.621 695.203C586.621 697.461 586.116 699.095 585.106 700.106C584.095 701.116 582.461 701.621 580.203 701.621Z" fill="#278fa1" fill-rule="nonzero" opacity="1" stroke="none"/>
<path d="M653.299 610.697L644.919 637.796L672.91 637.796L664.531 610.697C664.055 609.627 663.55 608.855 663.015 608.379C662.48 607.904 661.856 607.666 661.143 607.666L656.686 607.666C655.973 607.666 655.349 607.904 654.814 608.379C654.279 608.855 653.774 609.627 653.299 610.697ZM643.137 695.203C643.137 697.461 642.632 699.095 641.621 700.106C640.611 701.116 638.977 701.621 636.718 701.621L610.511 701.621C608.253 701.621 606.618 701.116 605.608 700.106C604.598 699.095 604.093 697.461 604.093 695.203L604.093 648.136C604.093 644.571 604.657 640.47 605.786 635.835C606.916 631.199 608.669 625.791 611.046 619.611L626.556 579.141C627.269 577.12 628.369 575.635 629.855 574.684C631.34 573.733 633.272 573.257 635.649 573.257L683.607 573.257C685.865 573.257 687.737 573.733 689.223 574.684C690.708 575.635 691.808 577.12 692.521 579.141L708.032 619.611C710.409 625.791 712.162 631.199 713.291 635.835C714.42 640.47 714.985 644.571 714.985 648.136L714.985 695.203C714.985 697.461 714.479 699.095 713.469 700.106C712.459 701.116 710.825 701.621 708.566 701.621L681.646 701.621C679.269 701.621 677.516 701.116 676.386 700.106C675.257 699.095 674.693 697.461 674.693 695.203L674.693 670.243L643.137 670.243L643.137 695.203Z" fill="#278fa1" fill-rule="nonzero" opacity="1" stroke="none"/>
<path d="M834.078 701.621L743.332 701.621C741.073 701.621 739.439 701.116 738.429 700.106C737.419 699.095 736.913 697.461 736.913 695.203L736.913 579.676C736.913 577.417 737.419 575.783 738.429 574.773C739.439 573.763 741.073 573.257 743.332 573.257L770.965 573.257C773.224 573.257 774.858 573.763 775.868 574.773C776.879 575.783 777.384 577.417 777.384 579.676L777.384 667.926L801.808 667.926L801.808 639.044C801.808 636.786 802.314 635.151 803.324 634.141C804.334 633.131 805.968 632.626 808.227 632.626L834.078 632.626C836.336 632.626 837.97 633.131 838.98 634.141C839.991 635.151 840.496 636.786 840.496 639.044L840.496 695.203C840.496 697.461 839.991 699.095 838.98 700.106C837.97 701.116 836.336 701.621 834.078 701.621Z" fill="#278fa1" fill-rule="nonzero" opacity="1" stroke="none"/>
</g>
<g opacity="1">
<path d="M200.738 965.333L111.981 965.333C107.614 965.333 104.454 964.369 102.501 962.44C100.548 960.511 99.5709 957.39 99.5709 953.079L99.5709 883.976C99.5709 879.665 100.548 876.544 102.501 874.615C104.454 872.686 107.614 871.722 111.981 871.722L200.738 871.722C205.105 871.722 208.264 872.686 210.218 874.615C212.171 876.544 213.148 879.665 213.148 883.976L213.148 953.079C213.148 957.39 212.171 960.511 210.218 962.44C208.264 964.369 205.105 965.333 200.738 965.333ZM181.497 862.012L111.865 862.012C107.498 862.012 104.338 861.047 102.385 859.118C100.432 857.189 99.4549 854.069 99.4549 849.757L99.4549 780.655C99.4549 776.343 100.432 773.223 102.385 771.294C104.338 769.365 107.498 768.4 111.865 768.4L181.497 768.4C185.864 768.4 189.024 769.365 190.977 771.294C192.93 773.223 193.907 776.343 193.907 780.655L193.907 849.757C193.907 854.069 192.93 857.189 190.977 859.118C189.024 861.047 185.864 862.012 181.497 862.012Z" fill="#278fa1" fill-rule="nonzero" opacity="1" stroke="none"/>
<path d="M416.361 913.204C416.361 921.514 415.126 929.056 412.656 935.83C410.187 942.605 405.796 948.386 399.485 953.173C393.173 957.96 384.484 961.709 373.416 964.419C362.348 967.128 348.308 968.483 331.294 968.483C314.281 968.483 300.195 967.128 289.035 964.419C277.876 961.709 269.141 957.96 262.829 953.173C256.518 948.386 252.127 942.605 249.658 935.83C247.188 929.056 245.953 921.514 245.953 913.204L245.953 820.801C245.953 812.491 247.188 804.948 249.658 798.174C252.127 791.4 256.518 785.574 262.829 780.696C269.141 775.818 277.876 772.025 289.035 769.315C300.195 766.605 314.281 765.25 331.294 765.25C348.308 765.25 362.348 766.605 373.416 769.315C384.484 772.025 393.173 775.818 399.485 780.696C405.796 785.574 410.187 791.4 412.656 798.174C415.126 804.948 416.361 812.491 416.361 820.801L416.361 913.204ZM308.244 903.449C308.244 907.062 309.616 910.088 312.36 912.526C315.104 914.965 321.415 916.185 331.294 916.185C341.173 916.185 347.484 914.965 350.228 912.526C352.972 910.088 354.345 907.062 354.345 903.449L354.345 830.556C354.345 827.123 352.972 824.188 350.228 821.749C347.484 819.31 341.173 818.091 331.294 818.091C321.415 818.091 315.104 819.31 312.36 821.749C309.616 824.188 308.244 827.123 308.244 830.556L308.244 903.449Z" fill="#278fa1" fill-rule="nonzero" opacity="1" stroke="none"/>
<path d="M522.831 826.22L509.934 867.409L553.016 867.409L540.119 826.22C539.387 824.594 538.61 823.42 537.787 822.698C536.963 821.975 536.003 821.614 534.905 821.614L528.045 821.614C526.948 821.614 525.987 821.975 525.164 822.698C524.341 823.42 523.563 824.594 522.831 826.22ZM507.19 954.663C507.19 958.096 506.413 960.58 504.858 962.115C503.303 963.651 500.787 964.419 497.311 964.419L456.973 964.419C453.498 964.419 450.982 963.651 449.427 962.115C447.872 960.58 447.095 958.096 447.095 954.663L447.095 883.125C447.095 877.706 447.964 871.473 449.702 864.428C451.439 857.383 454.138 849.163 457.797 839.769L481.67 778.257C482.768 775.186 484.46 772.928 486.747 771.483C489.033 770.038 492.006 769.315 495.665 769.315L569.481 769.315C572.957 769.315 575.838 770.038 578.125 771.483C580.412 772.928 582.104 775.186 583.201 778.257L607.075 839.769C610.734 849.163 613.432 857.383 615.17 864.428C616.908 871.473 617.777 877.706 617.777 883.125L617.777 954.663C617.777 958.096 616.999 960.58 615.444 962.115C613.889 963.651 611.374 964.419 607.898 964.419L566.462 964.419C562.804 964.419 560.105 963.651 558.367 962.115C556.629 960.58 555.76 958.096 555.76 954.663L555.76 916.727L507.19 916.727L507.19 954.663Z" fill="#278fa1" fill-rule="nonzero" opacity="1" stroke="none"/>
<path d="M743.182 964.419L656.468 964.419C652.993 964.419 650.477 963.651 648.922 962.115C647.367 960.58 646.59 958.096 646.59 954.663L646.59 922.959C646.59 919.527 647.367 917.043 648.922 915.507C650.477 913.972 652.993 913.204 656.468 913.204L730.284 913.204C732.663 913.204 734.446 912.436 735.635 910.901C736.824 909.365 737.419 907.513 737.419 905.346C737.419 902.274 736.824 900.016 735.635 898.571C734.446 897.126 732.663 896.313 730.284 896.132L689.123 890.442C676.317 888.635 666.027 884.48 658.252 877.977C650.477 871.473 646.59 860.634 646.59 845.46L646.59 817.007C646.59 801.652 651.621 789.864 661.682 781.644C671.744 773.425 685.647 769.315 703.392 769.315L780.227 769.315C783.703 769.315 786.218 770.083 787.773 771.618C789.328 773.154 790.105 775.638 790.105 779.07L790.105 811.316C790.105 814.749 789.328 817.233 787.773 818.768C786.218 820.304 783.703 821.072 780.227 821.072L716.29 821.072C713.911 821.072 712.082 821.839 710.801 823.375C709.521 824.91 708.881 826.852 708.881 829.201C708.881 831.549 709.521 833.537 710.801 835.162C712.082 836.788 713.911 837.692 716.29 837.872L757.176 843.292C769.982 845.098 780.318 849.253 788.185 855.757C796.051 862.26 799.984 873.099 799.984 888.274L799.984 916.727C799.984 932.082 794.908 943.869 784.755 952.089C774.601 960.309 760.744 964.419 743.182 964.419Z" fill="#278fa1" fill-rule="nonzero" opacity="1" stroke="none"/>
<path d="M920.45 964.419L875.995 964.419C872.52 964.419 870.004 963.651 868.449 962.115C866.894 960.58 866.117 958.096 866.117 954.663L866.117 821.614L825.779 821.614C822.303 821.614 819.787 820.846 818.232 819.31C816.677 817.775 815.9 815.291 815.9 811.858L815.9 779.07C815.9 775.638 816.677 773.154 818.232 771.618C819.787 770.083 822.303 769.315 825.779 769.315L970.666 769.315C974.142 769.315 976.658 770.083 978.213 771.618C979.768 773.154 980.545 775.638 980.545 779.07L980.545 811.858C980.545 815.291 979.768 817.775 978.213 819.31C976.658 820.846 974.142 821.614 970.666 821.614L930.328 821.614L930.328 954.663C930.328 958.096 929.551 960.58 927.996 962.115C926.441 963.651 923.925 964.419 920.45 964.419Z" fill="#278fa1" fill-rule="nonzero" opacity="1" stroke="none"/>
</g>
<g opacity="1">
<path fill="#ffca43" d="M420 122L420 450L739 450L739 122Z" fill-rule="nonzero" opacity="1" stroke="none" />
<path d="M431.057 111.517C426.759 111.517 423.793 112.815 418.713 115.981C418.542 116.088 417.745 116.661 417.138 117.032L355.682 165.356C354.093 166.682 351.747 168.604 349.641 171.397C345.994 176.233 343.863 181.508 343.863 186.892C343.863 190.647 343.863 473.346 343.863 477.101C343.863 493.326 357.053 506.516 373.278 506.516L663.224 506.516C667.471 506.516 676.648 504.05 680.033 501.526C696.49 489.257 734.025 457.23 741.226 450.05C746.503 444.773 749.63 437.418 749.63 429.827L749.63 139.618C749.63 124.038 736.92 111.517 721.266 111.517C712.196 111.517 440.127 111.517 431.057 111.517ZM439.461 123.335L721.266 123.335C730.507 123.335 738.074 130.641 738.074 139.881L738.074 429.827C738.074 439.068 730.507 446.636 721.266 446.636L439.461 446.636C430.221 446.636 422.917 439.068 422.916 429.827L422.916 139.881C422.916 130.64 430.22 123.335 439.461 123.335Z" fill="#278fa1" fill-rule="nonzero" opacity="1" stroke="none" />
<path d="M638.318 382.359L551.642 382.359C547.378 382.359 544.292 381.405 542.385 379.497C540.477 377.59 539.523 374.504 539.523 370.24L539.523 301.903C539.523 297.639 540.477 294.554 542.385 292.646C544.292 290.738 547.378 289.785 551.642 289.785L638.318 289.785C642.582 289.785 645.668 290.738 647.576 292.646C649.483 294.554 650.437 297.639 650.437 301.903L650.437 370.24C650.437 374.504 649.483 377.59 647.576 379.497C645.668 381.405 642.582 382.359 638.318 382.359ZM619.642 277.972L551.642 277.972C547.378 277.972 544.292 277.018 542.385 275.11C540.477 273.203 539.523 270.117 539.523 265.853L539.523 197.516C539.523 193.252 540.477 190.167 542.385 188.259C544.292 186.351 547.378 185.398 551.642 185.398L619.642 185.398C623.906 185.398 626.992 186.351 628.899 188.259C630.807 190.167 631.761 193.252 631.761 197.516L631.761 265.853C631.761 270.117 630.807 273.203 628.899 275.11C626.992 277.018 623.906 277.972 619.642 277.972Z" fill="#278fa1" fill-rule="nonzero" opacity="1" stroke="none" />
</g>
</g>
</svg>
