<?xml version="1.0" encoding="UTF-8" standalone="no"?>
<!DOCTYPE svg PUBLIC "-//W3C//DTD SVG 1.1//EN" "http://www.w3.org/Graphics/SVG/1.1/DTD/svg11.dtd">
<!-- Created with Vectornator (http://vectornator.io/) -->
<svg height="100%" stroke-miterlimit="10" style="fill-rule:nonzero;clip-rule:evenodd;stroke-linecap:round;stroke-linejoin:round;" version="1.1" viewBox="0 0 1080 540" width="100%" xml:space="preserve" xmlns="http://www.w3.org/2000/svg" xmlns:vectornator="http://vectornator.io" xmlns:xlink="http://www.w3.org/1999/xlink">
<defs/>
<clipPath id="ArtboardFrame">
<rect height="540" width="1080" x="0" y="0"/>
</clipPath>
<g clip-path="url(#ArtboardFrame)" id="Layer-1" vectornator:layerName="Layer 1">
<path d="M-48.8007-1.50786e-14L1128.8-1.50786e-14L1128.8 540L-48.8007 540L-48.8007-1.50786e-14Z" opacity="0" stroke="none" vectornator:layerName="Rectangle 31"/>
<g opacity="1" vectornator:layerName="Group 238">
<path d="M478.605 392.234L424.101 392.234C421.42 392.234 419.479 391.641 418.28 390.457C417.08 389.272 416.48 387.356 416.48 384.708L416.48 342.274C416.48 339.626 417.08 337.71 418.28 336.525C419.479 335.341 421.42 334.749 424.101 334.749L478.605 334.749C481.287 334.749 483.227 335.341 484.427 336.525C485.626 337.71 486.226 339.626 486.226 342.274L486.226 384.708C486.226 387.356 485.626 389.272 484.427 390.457C483.227 391.641 481.287 392.234 478.605 392.234ZM466.79 328.786L424.03 328.786C421.349 328.786 419.408 328.193 418.209 327.009C417.009 325.824 416.409 323.908 416.409 321.26L416.409 278.826C416.409 276.178 417.009 274.262 418.209 273.078C419.408 271.893 421.349 271.301 424.03 271.301L466.79 271.301C469.471 271.301 471.412 271.893 472.611 273.078C473.811 274.262 474.411 276.178 474.411 278.826L474.411 321.26C474.411 323.908 473.811 325.824 472.611 327.009C471.412 328.193 469.471 328.786 466.79 328.786Z" fill="#278fa1" fill-rule="nonzero" opacity="1" stroke="none"/>
<path d="M611.015 360.222C611.015 365.325 610.257 369.956 608.74 374.116C607.224 378.276 604.528 381.826 600.652 384.766C596.776 387.706 591.44 390.008 584.644 391.672C577.847 393.336 569.225 394.168 558.777 394.168C548.33 394.168 539.68 393.336 532.827 391.672C525.974 390.008 520.61 387.706 516.734 384.766C512.859 381.826 510.162 378.276 508.646 374.116C507.129 369.956 506.371 365.325 506.371 360.222L506.371 303.479C506.371 298.376 507.129 293.744 508.646 289.584C510.162 285.424 512.859 281.847 516.734 278.851C520.61 275.856 525.974 273.526 532.827 271.862C539.68 270.198 548.33 269.366 558.777 269.366C569.225 269.366 577.847 270.198 584.644 271.862C591.44 273.526 596.776 275.856 600.652 278.851C604.528 281.847 607.224 285.424 608.74 289.584C610.257 293.744 611.015 298.376 611.015 303.479L611.015 360.222ZM544.623 354.231C544.623 356.45 545.465 358.308 547.15 359.806C548.835 361.303 552.711 362.052 558.777 362.052C564.844 362.052 568.719 361.303 570.404 359.806C572.09 358.308 572.932 356.45 572.932 354.231L572.932 309.469C572.932 307.362 572.09 305.559 570.404 304.061C568.719 302.564 564.844 301.815 558.777 301.815C552.711 301.815 548.835 302.564 547.15 304.061C545.465 305.559 544.623 307.362 544.623 309.469L544.623 354.231Z" fill="#278fa1" fill-rule="nonzero" opacity="1" stroke="none"/>
<path d="M676.397 306.807L668.477 332.1L694.933 332.1L687.013 306.807C686.563 305.808 686.086 305.087 685.58 304.644C685.075 304.2 684.485 303.978 683.811 303.978L679.598 303.978C678.924 303.978 678.335 304.2 677.829 304.644C677.324 305.087 676.846 305.808 676.397 306.807ZM666.792 385.681C666.792 387.789 666.314 389.314 665.359 390.257C664.405 391.2 662.86 391.672 660.725 391.672L635.955 391.672C633.82 391.672 632.275 391.2 631.321 390.257C630.366 389.314 629.888 387.789 629.888 385.681L629.888 341.751C629.888 338.423 630.422 334.596 631.489 330.27C632.556 325.943 634.213 320.896 636.46 315.127L651.12 277.354C651.794 275.468 652.834 274.081 654.238 273.194C655.642 272.306 657.468 271.862 659.714 271.862L705.043 271.862C707.178 271.862 708.947 272.306 710.351 273.194C711.756 274.081 712.795 275.468 713.469 277.354L728.129 315.127C730.376 320.896 732.033 325.943 733.1 330.27C734.167 334.596 734.701 338.423 734.701 341.751L734.701 385.681C734.701 387.789 734.223 389.314 733.269 390.257C732.314 391.2 730.769 391.672 728.635 391.672L703.19 391.672C700.943 391.672 699.286 391.2 698.219 390.257C697.151 389.314 696.618 387.789 696.618 385.681L696.618 362.385L666.792 362.385L666.792 385.681Z" fill="#278fa1" fill-rule="nonzero" opacity="1" stroke="none"/>
<path d="M811.71 391.672L758.461 391.672C756.326 391.672 754.782 391.2 753.827 390.257C752.872 389.314 752.394 387.789 752.394 385.681L752.394 366.212C752.394 364.105 752.872 362.579 753.827 361.636C754.782 360.693 756.326 360.222 758.461 360.222L803.79 360.222C805.25 360.222 806.345 359.75 807.076 358.807C807.806 357.865 808.171 356.727 808.171 355.396C808.171 353.51 807.806 352.124 807.076 351.236C806.345 350.349 805.25 349.849 803.79 349.739L778.513 346.244C770.65 345.135 764.33 342.583 759.556 338.59C754.782 334.596 752.394 327.94 752.394 318.621L752.394 301.149C752.394 291.72 755.484 284.481 761.662 279.434C767.841 274.386 776.379 271.862 787.276 271.862L834.458 271.862C836.593 271.862 838.137 272.334 839.092 273.277C840.047 274.22 840.525 275.745 840.525 277.853L840.525 297.655C840.525 299.762 840.047 301.288 839.092 302.231C838.137 303.174 836.593 303.645 834.458 303.645L795.196 303.645C793.735 303.645 792.612 304.117 791.825 305.06C791.039 306.003 790.646 307.195 790.646 308.637C790.646 310.079 791.039 311.3 791.825 312.298C792.612 313.297 793.735 313.851 795.196 313.962L820.304 317.29C828.167 318.4 834.514 320.951 839.345 324.945C844.176 328.938 846.591 335.594 846.591 344.913L846.591 362.385C846.591 371.815 843.474 379.053 837.239 384.101C831.004 389.148 822.494 391.672 811.71 391.672Z" fill="#278fa1" fill-rule="nonzero" opacity="1" stroke="none"/>
<path d="M920.566 391.672L893.268 391.672C891.134 391.672 889.589 391.2 888.634 390.257C887.679 389.314 887.202 387.789 887.202 385.681L887.202 303.978L862.431 303.978C860.296 303.978 858.752 303.507 857.797 302.564C856.842 301.621 856.364 300.095 856.364 297.988L856.364 277.853C856.364 275.745 856.842 274.22 857.797 273.277C858.752 272.334 860.296 271.862 862.431 271.862L951.404 271.862C953.538 271.862 955.083 272.334 956.038 273.277C956.993 274.22 957.47 275.745 957.47 277.853L957.47 297.988C957.47 300.095 956.993 301.621 956.038 302.564C955.083 303.507 953.538 303.978 951.404 303.978L926.633 303.978L926.633 385.681C926.633 387.789 926.155 389.314 925.2 390.257C924.246 391.2 922.701 391.672 920.566 391.672Z" fill="#278fa1" fill-rule="nonzero" opacity="1" stroke="none"/>
</g>
<g opacity="1" vectornator:layerName="Group 239">
<g opacity="1" vectornator:layerName="Group 198">
<path d="M560.136 229.661L503.544 229.661C502.135 229.661 501.116 229.346 500.486 228.716C499.856 228.086 499.541 227.067 499.541 225.658L499.541 153.612C499.541 152.204 499.856 151.185 500.486 150.554C501.116 149.924 502.135 149.609 503.544 149.609L520.777 149.609C522.185 149.609 523.204 149.924 523.834 150.554C524.464 151.185 524.779 152.204 524.779 153.612L524.779 208.647L540.012 208.647L540.012 190.636C540.012 189.228 540.327 188.208 540.957 187.578C541.587 186.948 542.606 186.633 544.014 186.633L560.136 186.633C561.544 186.633 562.563 186.948 563.193 187.578C563.823 188.208 564.138 189.228 564.138 190.636L564.138 225.658C564.138 227.067 563.823 228.086 563.193 228.716C562.563 229.346 561.544 229.661 560.136 229.661Z" fill="#278fa1" fill-rule="nonzero" opacity="1" stroke="none"/>
<path d="M644.635 208.647C644.635 212.057 644.134 215.152 643.134 217.931C642.133 220.711 640.354 223.083 637.797 225.047C635.24 227.011 631.719 228.549 627.234 229.661C622.75 230.773 617.061 231.329 610.168 231.329C603.275 231.329 597.567 230.773 593.046 229.661C588.524 228.549 584.985 227.011 582.428 225.047C579.871 223.083 578.092 220.711 577.091 217.931C576.09 215.152 575.59 212.057 575.59 208.647L575.59 170.734C575.59 167.325 576.09 164.23 577.091 161.45C578.092 158.671 579.871 156.28 582.428 154.279C584.985 152.278 588.524 150.721 593.046 149.609C597.567 148.498 603.275 147.942 610.168 147.942C617.061 147.942 622.75 148.498 627.234 149.609C631.719 150.721 635.24 152.278 637.797 154.279C640.354 156.28 642.133 158.671 643.134 161.45C644.134 164.23 644.635 167.325 644.635 170.734L644.635 208.647ZM600.829 204.645C600.829 206.127 601.384 207.369 602.496 208.37C603.608 209.37 606.165 209.871 610.168 209.871C614.17 209.871 616.728 209.37 617.84 208.37C618.951 207.369 619.507 206.127 619.507 204.645L619.507 174.737C619.507 173.328 618.951 172.124 617.84 171.123C616.728 170.123 614.17 169.622 610.168 169.622C606.165 169.622 603.608 170.123 602.496 171.123C601.384 172.124 600.829 173.328 600.829 174.737L600.829 204.645Z" fill="#278fa1" fill-rule="nonzero" opacity="1" stroke="none"/>
<path d="M712.011 229.661L684.883 229.661C675.618 229.661 668.743 227.808 664.258 224.102C659.774 220.396 657.532 214.688 657.532 206.98L657.532 172.402C657.532 164.693 659.774 158.967 664.258 155.224C668.743 151.481 675.618 149.609 684.883 149.609L712.011 149.609C713.42 149.609 714.439 149.924 715.069 150.554C715.699 151.185 716.014 152.204 716.014 153.612L716.014 167.065C716.014 168.473 715.699 169.493 715.069 170.123C714.439 170.753 713.42 171.068 712.011 171.068L689.664 171.068C687.366 171.068 685.661 171.531 684.549 172.457C683.437 173.384 682.881 174.774 682.881 176.627L682.881 203.088C682.881 204.941 683.437 206.294 684.549 207.147C685.661 207.999 687.366 208.425 689.664 208.425L712.011 208.425C713.42 208.425 714.439 208.74 715.069 209.37C715.699 210 716.014 211.019 716.014 212.428L716.014 225.658C716.014 227.067 715.699 228.086 715.069 228.716C714.439 229.346 713.42 229.661 712.011 229.661Z" fill="#278fa1" fill-rule="nonzero" opacity="1" stroke="none"/>
<path d="M757.596 172.958L752.371 189.858L769.826 189.858L764.601 172.958C764.304 172.291 763.989 171.809 763.656 171.512C763.322 171.216 762.933 171.068 762.488 171.068L759.709 171.068C759.264 171.068 758.875 171.216 758.541 171.512C758.208 171.809 757.893 172.291 757.596 172.958ZM751.259 225.658C751.259 227.067 750.944 228.086 750.314 228.716C749.684 229.346 748.665 229.661 747.256 229.661L730.912 229.661C729.504 229.661 728.485 229.346 727.855 228.716C727.225 228.086 726.91 227.067 726.91 225.658L726.91 196.306C726.91 194.083 727.262 191.525 727.966 188.635C728.67 185.744 729.764 182.371 731.246 178.517L740.919 153.278C741.364 152.018 742.049 151.092 742.976 150.499C743.902 149.906 745.107 149.609 746.589 149.609L776.497 149.609C777.906 149.609 779.073 149.906 780 150.499C780.926 151.092 781.612 152.018 782.057 153.278L791.729 178.517C793.212 182.371 794.305 185.744 795.009 188.635C795.713 191.525 796.066 194.083 796.066 196.306L796.066 225.658C796.066 227.067 795.751 228.086 795.12 228.716C794.49 229.346 793.471 229.661 792.063 229.661L775.274 229.661C773.792 229.661 772.699 229.346 771.994 228.716C771.29 228.086 770.938 227.067 770.938 225.658L770.938 210.093L751.259 210.093L751.259 225.658Z" fill="#278fa1" fill-rule="nonzero" opacity="1" stroke="none"/>
<path d="M870.336 229.661L813.744 229.661C812.335 229.661 811.316 229.346 810.686 228.716C810.056 228.086 809.741 227.067 809.741 225.658L809.741 153.612C809.741 152.204 810.056 151.185 810.686 150.554C811.316 149.924 812.335 149.609 813.744 149.609L830.977 149.609C832.385 149.609 833.404 149.924 834.034 150.554C834.665 151.185 834.98 152.204 834.98 153.612L834.98 208.647L850.212 208.647L850.212 190.636C850.212 189.228 850.527 188.208 851.157 187.578C851.787 186.948 852.806 186.633 854.214 186.633L870.336 186.633C871.744 186.633 872.763 186.948 873.393 187.578C874.023 188.208 874.338 189.228 874.338 190.636L874.338 225.658C874.338 227.067 874.023 228.086 873.393 228.716C872.763 229.346 871.744 229.661 870.336 229.661Z" fill="#278fa1" fill-rule="nonzero" opacity="1" stroke="none"/>
</g>
<g opacity="1" vectornator:layerName="Group 202">
<path fill="#ffca43" d="M172.907 150.105L129.9 380.681L371 356L371 154Z" fill-rule="nonzero" opacity="1" stroke="none" />
<path d="M176.907 147.105C174.226 147.105 172.377 147.915 169.209 149.89C169.102 149.956 168.605 150.313 168.226 150.545L129.9 180.681C128.91 181.508 127.447 182.707 126.133 184.449C123.859 187.464 122.53 190.754 122.53 194.112C122.53 196.454 122.53 372.753 122.53 375.095C122.53 385.213 130.756 393.439 140.874 393.439L321.694 393.439C324.342 393.439 330.065 391.901 332.176 390.327C342.439 382.676 365.847 362.703 370.338 358.225C373.629 354.934 375.579 350.348 375.579 345.614L375.579 164.63C375.579 154.914 367.652 147.106 357.89 147.105C352.234 147.105 182.563 147.105 176.907 147.105ZM182.148 154.476L357.89 154.476C363.653 154.476 368.372 159.032 368.373 164.794L368.373 345.614C368.373 351.377 363.653 356.096 357.89 356.096L182.148 356.096C176.385 356.096 171.83 351.377 171.83 345.614L171.83 164.794C171.83 159.031 176.385 154.476 182.148 154.476Z" fill="#278fa1" fill-rule="nonzero" opacity="1" stroke="none" vectornator:layerName="Curve 37"/>
<path d="M306.162 316.011L252.108 316.011C249.448 316.011 247.524 315.416 246.334 314.226C245.145 313.037 244.55 311.112 244.55 308.453L244.55 265.837C244.55 263.177 245.145 261.253 246.334 260.063C247.524 258.874 249.448 258.279 252.108 258.279L306.162 258.279C308.821 258.279 310.745 258.874 311.935 260.063C313.124 261.253 313.719 263.177 313.719 265.837L313.719 308.453C313.719 311.112 313.124 313.037 311.935 314.226C310.745 315.416 308.821 316.011 306.162 316.011ZM294.514 250.912L252.108 250.912C249.448 250.912 247.524 250.317 246.334 249.127C245.145 247.938 244.55 246.013 244.55 243.354L244.55 200.737C244.55 198.078 245.145 196.154 246.334 194.964C247.524 193.775 249.448 193.18 252.108 193.18L294.514 193.18C297.174 193.18 299.098 193.775 300.288 194.964C301.477 196.154 302.072 198.078 302.072 200.737L302.072 243.354C302.072 246.013 301.477 247.938 300.288 249.127C299.098 250.317 297.174 250.912 294.514 250.912Z" fill="#278fa1" fill-rule="nonzero" opacity="1" stroke="none" vectornator:layerName="Curve 36"/>
</g>
</g>
</g>
</svg>
