<?xml version="1.0" encoding="UTF-8" standalone="no"?>
<!DOCTYPE svg PUBLIC "-//W3C//DTD SVG 1.1//EN" "http://www.w3.org/Graphics/SVG/1.1/DTD/svg11.dtd">
<!-- Created with Vectornator (http://vectornator.io/) -->
<svg height="100%" stroke-miterlimit="10" style="fill-rule:nonzero;clip-rule:evenodd;stroke-linecap:round;stroke-linejoin:round;" version="1.1" viewBox="70 75 400 390" width="100%" xml:space="preserve" xmlns="http://www.w3.org/2000/svg" xmlns:xlink="http://www.w3.org/1999/xlink">
<defs/>
<g id="Layer-1">
<g>
<path d="M156.284 75.8704C152.06 75.8704 149.144 77.1463 144.151 80.2589C143.983 80.3639 143.2 80.9265 142.602 81.2915L82.1951 128.791C80.6337 130.094 78.3278 131.984 76.2576 134.729C72.6725 139.482 70.5785 144.668 70.5783 149.96C70.5783 153.651 70.5783 431.526 70.5783 435.217C70.5783 451.164 83.543 464.13 99.4912 464.13L384.49 464.13C388.665 464.13 397.684 461.705 401.012 459.225C417.188 447.165 454.083 415.685 461.161 408.627C466.348 403.44 469.422 396.211 469.422 388.75L469.422 103.493C469.422 88.1777 456.928 75.8706 441.541 75.8704C432.626 75.8704 165.199 75.8704 156.284 75.8704ZM164.545 87.4872L441.541 87.4872C450.625 87.4872 458.063 94.668 458.063 103.751L458.063 388.75C458.063 397.833 450.625 405.272 441.541 405.271L164.545 405.271C155.462 405.271 148.283 397.833 148.282 388.75L148.282 103.751C148.282 94.6675 155.461 87.4868 164.545 87.4872Z" fill="#currentColor" fill-rule="nonzero" stroke="none" opacity="1" />
<path d="M360.009 342.091L274.812 342.091C270.621 342.091 267.588 341.153 265.713 339.278C263.838 337.403 262.9 334.37 262.9 330.179L262.9 263.009C262.9 258.817 263.838 255.784 265.713 253.909C267.588 252.034 270.621 251.097 274.812 251.097L360.009 251.097C364.201 251.097 367.234 252.034 369.109 253.909C370.984 255.784 371.921 258.817 371.921 263.009L371.921 330.179C371.921 334.37 370.984 337.403 369.109 339.278C367.234 341.153 364.201 342.091 360.009 342.091ZM341.652 239.485L274.812 239.485C270.621 239.485 267.588 238.548 265.713 236.672C263.838 234.797 262.9 231.764 262.9 227.573L262.9 160.403C262.9 156.211 263.838 153.178 265.713 151.303C267.588 149.428 270.621 148.491 274.812 148.491L341.652 148.491C345.843 148.491 348.876 149.428 350.751 151.303C352.626 153.178 353.564 156.211 353.564 160.403L353.564 227.573C353.564 231.764 352.626 234.797 350.751 236.672C348.876 238.548 345.843 239.485 341.652 239.485Z" fill="#currentColor" fill-rule="nonzero" stroke="none" opacity="1"/>
</g>
</g>
</svg>
